<svg width="224" height="108" viewBox="0 0 224 108" fill="none" xmlns="http://www.w3.org/2000/svg">
<path d="M20 18.6172C20 19.3594 19.8506 20.1016 19.5517 20.6953C19.2529 21.2891 18.954 21.7344 18.3563 22.1797C17.908 22.625 17.3103 22.9219 16.7126 23.0703C16.1149 23.2188 15.5172 23.3672 14.9195 23.5156V25H11.931V23.5156C11.0345 23.3672 10.2874 23.2188 9.68966 22.9219C9.09195 22.625 8.49425 22.3281 8.1954 21.7344C7.74713 21.2891 7.44828 20.6953 7.29885 20.1016C7.14942 19.5078 7 18.7656 7 18.0234V11.7891C7 11.0469 7.14943 10.3047 7.44828 9.71094C7.74713 9.11719 8.04598 8.67188 8.64368 8.22656C9.09195 7.78125 9.68966 7.48437 10.2874 7.33594C10.8851 7.1875 11.4828 7.03906 12.0805 7.03906V6H15.069V7.03906C15.6667 7.03906 16.2644 7.1875 16.8621 7.33594C17.4598 7.63281 17.908 7.92969 18.5057 8.22656C18.954 8.67188 19.4023 9.11719 19.5517 9.71094C19.8506 10.3047 20 11.0469 20 11.7891V18.6172ZM12.0805 9.26562C11.4828 9.41406 10.8851 9.71094 10.4368 10.0078C10.1379 10.3047 9.98851 10.8984 9.98851 11.6406V18.9141C9.98851 19.2109 9.98851 19.5078 10.1379 19.8047C10.2874 20.1016 10.4368 20.25 10.5862 20.3984C10.7356 20.5469 11.0345 20.6953 11.3333 20.8438C11.6322 20.9922 11.931 20.9922 12.0805 20.9922V9.26562ZM17.3103 11.6406C17.3103 10.8984 17.1609 10.4531 16.7126 10.0078C16.2644 9.5625 15.8161 9.41406 15.2184 9.41406V21.1406C15.5172 21.1406 15.6667 20.9922 15.9655 20.9922C16.2644 20.8437 16.4138 20.6953 16.7126 20.5469C16.8621 20.3984 17.1609 20.1016 17.1609 19.9531C17.3103 19.6562 17.3103 19.3594 17.3103 19.0625V11.6406Z" fill="white"/>
<path d="M34 19.1395C34 20.7597 33.5714 21.938 32.8571 22.8217C32.1429 23.7054 31 24 29.4286 24C27.8571 24 26.7143 23.5581 26 22.8217C25.2857 22.0853 25 20.907 25 19.2868V10.0078C25 9.27132 25.1429 8.53488 25.2857 7.94574C25.4286 7.35659 25.7143 6.76744 26 6.32558C26.4286 5.88372 26.8571 5.58915 27.4286 5.29457C28 5.14729 28.5714 5 29.4286 5C30.2857 5 31 5.14729 31.5714 5.29457C32.1429 5.58915 32.5714 5.88372 33 6.32558C33.2857 6.76744 33.5714 7.35659 33.7143 7.94574C33.8571 8.53488 34 9.27132 34 10.0078V19.1395ZM31 9.71318C31 9.12403 30.8571 8.68217 30.7143 8.24031C30.4286 7.79845 30.1429 7.65116 29.4286 7.65116C29.1429 7.65116 28.8571 7.65116 28.5714 7.94574C28.4286 8.09302 28.1429 8.24031 28 8.53488C27.8571 8.82946 27.8571 8.97674 27.7143 9.27132C27.7143 9.56589 27.7143 9.86047 27.7143 10.0078V19.4341C27.7143 19.876 27.8571 20.3178 28.1429 20.7597C28.4286 21.2015 28.8571 21.3488 29.4286 21.3488C30 21.3488 30.4286 21.2015 30.7143 20.7597C31 20.3178 31.1429 19.876 31.1429 19.2868L31 9.71318Z" fill="white"/>
<path d="M46.1429 25V16.6875H42.8571V25H40V6H42.8571V13.8672H46.1429V6H49V25H46.1429Z" fill="white"/>
<path d="M55.4 24.5263V28H53V22.0658L54.1294 21.7763C54.6941 21.1974 54.9765 20.6184 55.1176 19.8947C55.2588 19.1711 55.4 18.3026 55.4 17.1447L55.6824 6H63.8706V21.7763H65V28H62.6V24.5263H55.4ZM58.0824 17.1447C58.0824 18.1579 57.9412 19.1711 57.9412 19.8947C57.8 20.6184 57.6588 21.3421 57.3765 21.7763H61.3294V8.75H58.2235L58.0824 17.1447Z" fill="white"/>
<path d="M84.3846 5C85.1538 5 85.9231 5.14729 86.5385 5.29457C87.1538 5.44186 87.6154 5.88372 88.0769 6.17829C88.5385 6.62015 88.6923 7.06202 89 7.50388C89 8.09302 89 8.68217 89 9.27132L85.9231 10.0078C85.9231 9.27132 85.7692 8.82946 85.4615 8.3876C85.1538 7.94574 84.6923 7.79845 84.0769 7.79845C83.7692 7.79845 83.4615 7.79845 83.1538 7.94574C83 8.09302 82.6923 8.24031 82.6923 8.53488C82.5385 8.82946 82.5385 8.97674 82.3846 9.27132C82.3846 9.56589 82.3846 9.86047 82.3846 10.0078V19.5814C82.3846 19.7287 82.3846 20.0233 82.3846 20.1705C82.3846 20.4651 82.5385 20.6124 82.6923 20.7597C82.8462 20.907 83 21.0543 83.1538 21.2015C83.3077 21.3488 83.6154 21.3488 83.9231 21.3488C85 21.3488 85.6154 20.6124 85.6154 18.9922C86.0769 19.1395 86.6923 19.1395 87.1538 19.2868C87.6154 19.4341 88.2308 19.4341 88.6923 19.4341C88.6923 20.907 88.2308 21.938 87.4615 22.8217C86.6923 23.7054 85.4615 24 83.9231 24C82.2308 24 81 23.5581 80.2308 22.8217C79.4615 22.0853 79 20.907 79 19.4341V10.155C79 9.4186 79 8.82946 79.3077 8.09302C79.4615 7.50388 79.7692 6.91473 80.0769 6.47287C80.5385 6.03101 81 5.58915 81.6154 5.44186C82.6923 5.14729 83.4615 5 84.3846 5Z" fill="white"/>
<path d="M102 19.1769C102 20.7846 101.571 21.9538 100.857 22.8308C100.143 23.7077 99 24 97.4286 24C95.8571 24 94.7143 23.5615 94 22.8308C93.2857 22.1 93 20.9308 93 19.3231V10.1154C93 9.38462 93.1429 8.65385 93.2857 8.06923C93.4286 7.48462 93.7143 6.9 94 6.46154C94.2857 6.02308 94.8571 5.73077 95.4286 5.43846C96 5.14615 96.7143 5 97.4286 5C98.2857 5 99 5.14615 99.5714 5.29231C100.143 5.58462 100.571 5.87692 101 6.31538C101.286 6.75385 101.571 7.33846 101.714 7.92308C101.857 8.50769 102 9.23846 102 9.96923V19.1769ZM99.1429 9.82308C99.1429 9.23846 99 8.8 98.8571 8.36154C98.5714 7.92308 98.2857 7.77692 97.5714 7.77692C97.2857 7.77692 97 7.77692 96.7143 8.06923C96.5714 8.21538 96.2857 8.36154 96.1429 8.65385C96 8.94615 96 9.09231 95.8571 9.38462C95.8571 9.67692 95.8571 9.96923 95.8571 10.1154V19.4692C95.8571 19.9077 96 20.3462 96.2857 20.7846C96.5714 21.2231 97 21.3692 97.5714 21.3692C98.1429 21.3692 98.5714 21.2231 98.8571 20.7846C99.1429 20.3462 99.2857 19.9077 99.2857 19.3231L99.1429 9.82308Z" fill="white"/>
<path d="M109.4 24.5263V28H107V22.0658L108.129 21.7763C108.694 21.1974 108.976 20.6184 109.118 19.8947C109.259 19.1711 109.4 18.3026 109.4 17.1447L109.682 6H117.871V21.7763H119V28H116.6V24.5263H109.4ZM111.941 17.1447C111.941 18.1579 111.8 19.1711 111.8 19.8947C111.659 20.6184 111.518 21.3421 111.235 21.7763H115.188V8.75H112.224L111.941 17.1447Z" fill="white"/>
<path d="M124 25V6H133V8.67188H127.103V13.8672H132.224V16.6875H127.103V22.1797H133V25H124Z" fill="white"/>
<path d="M143.765 12.2803L139.794 24H137V5.24841H139.941V17.1146H140.088L144.059 5.24841H147V23.8535H144.059L143.765 12.2803ZM140.235 1C140.235 1.1465 140.235 1.43949 140.382 1.58599C140.529 1.73248 140.676 2.02548 140.824 2.17197C140.971 2.31847 141.118 2.46497 141.412 2.61146C141.559 2.75796 141.853 2.75796 142.147 2.75796C142.441 2.75796 142.735 2.75796 142.882 2.61146C143.029 2.46497 143.324 2.31847 143.471 2.17197C143.618 2.02548 143.765 1.87898 143.765 1.58599C143.765 1.29299 143.765 1.1465 143.765 1H145.971C145.971 1.29299 145.824 1.73248 145.676 2.17197C145.529 2.61146 145.235 3.05096 144.941 3.49045C144.647 3.78344 144.206 4.07643 143.765 4.36943C143.324 4.66242 142.735 4.66242 142.147 4.66242C141.412 4.66242 140.824 4.51592 140.382 4.36943C139.794 4.07643 139.353 3.78344 139.059 3.49045C138.765 3.19745 138.471 2.75796 138.324 2.31847C138.176 1.87898 138.029 1.43949 138.029 1.1465L140.235 1Z" fill="white"/>
<path d="M157.077 5C157.846 5 158.615 5.14729 159.231 5.29457C159.846 5.44186 160.308 5.88372 160.769 6.17829C161.231 6.62015 161.385 7.06202 161.692 7.50388C161.846 8.09302 162 8.53488 162 9.27132L158.923 10.0078C158.923 9.27132 158.769 8.82946 158.462 8.3876C158.154 7.94574 157.692 7.79845 157.077 7.79845C156.769 7.79845 156.462 7.79845 156.154 7.94574C156 8.09302 155.692 8.24031 155.692 8.53488C155.538 8.82946 155.538 8.97674 155.385 9.27132C155.385 9.56589 155.385 9.86047 155.385 10.0078V19.5814C155.385 19.7287 155.385 20.0233 155.385 20.1705C155.385 20.4651 155.538 20.6124 155.692 20.7597C155.846 20.907 156 21.0543 156.154 21.2015C156.308 21.3488 156.615 21.3488 156.923 21.3488C158 21.3488 158.615 20.6124 158.615 18.9922C159.077 19.1395 159.692 19.1395 160.154 19.2868C160.615 19.4341 161.231 19.4341 161.692 19.4341C161.692 20.907 161.231 21.938 160.462 22.8217C159.692 23.7054 158.462 24 156.923 24C155.231 24 154.154 23.5581 153.231 22.8217C152.308 22.0853 152 20.907 152 19.4341V10.155C152 9.4186 152 8.82946 152.308 8.09302C152.462 7.50388 152.769 6.91473 153.077 6.47287C153.538 6.03101 154 5.58915 154.615 5.44186C155.385 5.14729 156.154 5 157.077 5Z" fill="white"/>
<path d="M170.952 8.67188V25H168.048V8.67188H165V6H174V8.67188H170.952Z" fill="white"/>
<path d="M185.857 15.126C186.714 15.4252 187.286 15.874 187.571 16.622C187.857 17.3701 188 18.2677 188 19.315C188 21.2598 187.571 22.7559 186.714 23.6535C185.857 24.5512 184.571 25 182.857 25H179V6H183C184.571 6 185.857 6.44882 186.571 7.34646C187.286 8.24409 187.714 9.59055 187.714 11.2362C187.714 12.1339 187.571 12.8819 187.286 13.4803C187.143 14.0787 186.571 14.6772 185.857 15.126ZM185.143 11.2362C185.143 10.3386 185 9.74016 184.571 9.29134C184.286 8.84252 183.714 8.69291 182.857 8.69291H182V13.6299H183C183.714 13.6299 184.286 13.4803 184.571 13.0315C184.857 12.5827 185.143 11.9843 185.143 11.2362ZM185.286 19.0157C185.286 18.1181 185.143 17.5197 184.857 17.0709C184.571 16.622 184 16.4724 183.143 16.4724H182V22.4567H183.143C183.571 22.4567 184 22.3071 184.286 22.1575C184.571 22.0079 184.714 21.7087 184.857 21.4094C185 21.1102 185.143 20.811 185.143 20.3622C185.286 19.9134 185.286 19.4646 185.286 19.0157Z" fill="white"/>
<path d="M199.866 13.125L195.836 25H193V6H195.836V18.0234H195.985L200.015 6H203V25H200.015V13.125H199.866Z" fill="white"/>
<path d="M208 25L209.029 19.0625C209.176 18.4688 209.324 17.875 209.618 17.2812C209.912 16.6875 210.206 16.3906 210.794 16.0938C209.912 15.7969 209.324 15.2031 209.029 14.4609C208.735 13.7187 208.588 12.8281 208.588 11.7891C208.588 9.85937 209.029 8.52344 209.912 7.48438C210.794 6.59375 212.118 6 213.588 6H218V24.8516H215.059V16.8359H214.324C213.735 16.8359 213.294 16.9844 212.853 17.4297C212.412 17.875 212.118 18.4688 211.971 19.6562L211.088 25H208ZM213.882 8.67188C213 8.67188 212.412 8.96875 211.971 9.41406C211.529 9.85938 211.382 10.6016 211.382 11.4922C211.382 12.3828 211.676 13.125 212.118 13.4219C212.559 13.7188 213.147 14.0156 213.882 14.0156H215.059V8.67188H213.882Z" fill="white"/>
<path d="M15.3415 39.5886L10.3659 54H7V31H10.5122V45.557H10.6585L15.4878 31H19V54H15.4878V39.5886H15.3415Z" fill="white"/>
<path d="M36.4744 54V43.9557H32.5256V54H29V31H32.5256V40.6076H36.4744V31H40V54H36.4744Z" fill="white"/>
<path d="M58.4744 54V43.9557H54.3846V54H51V31H54.3846V40.6076H58.4744V31H62V54H58.4744Z" fill="white"/>
<path d="M83.859 47.9625C83.859 49.975 83.4359 51.4125 82.5897 52.4187C81.7436 53.425 80.3333 54 78.359 54C76.3846 54 75.1154 53.5688 74.2692 52.5625C73.4231 51.5562 73 50.2625 73 48.3937V36.8937C73 36.0312 73.141 35.1687 73.2821 34.45C73.4231 33.7312 73.8462 33.0125 74.2692 32.5812C74.6923 32.0062 75.2564 31.575 75.9615 31.4312C76.6667 31.1437 77.5128 31 78.5 31C79.4872 31 80.4744 31.1437 81.0385 31.4312C81.7436 31.7187 82.3077 32.15 82.7308 32.5812C83.1538 33.1562 83.4359 33.7312 83.7179 34.45C83.859 35.1687 84 36.0312 84 37.0375L83.859 47.9625ZM80.3333 36.6062C80.3333 36.0312 80.1923 35.4562 79.9103 34.8812C79.6282 34.3062 79.0641 34.1625 78.359 34.1625C77.9359 34.1625 77.6538 34.3062 77.3718 34.45C77.0897 34.5937 76.9487 34.8812 76.8077 35.1687C76.6667 35.4562 76.5256 35.7438 76.5256 36.0312C76.5256 36.3187 76.3846 36.6062 76.3846 37.0375V48.5375C76.3846 49.1125 76.5256 49.6875 76.8077 50.1187C77.0897 50.55 77.6538 50.8375 78.359 50.8375C79.0641 50.8375 79.6282 50.55 79.9103 50.1187C80.1923 49.5437 80.3333 48.9687 80.3333 48.3937V36.6062Z" fill="white"/>
<path d="M102.286 41.9937C103.286 42.283 104 43.0063 104.429 43.8742C104.857 44.7421 105 45.8994 105 47.0566C105 49.5157 104.429 51.2516 103.429 52.2642C102.429 53.4214 100.857 54 98.7143 54H94V31H99C101 31 102.429 31.5786 103.429 32.5912C104.429 33.6038 104.857 35.195 104.857 37.2201C104.857 38.2327 104.714 39.2453 104.286 39.9686C103.857 40.6918 103.286 41.4151 102.429 41.7044L102.286 41.9937ZM101.286 37.3648C101.286 36.3522 101.143 35.4843 100.714 35.0503C100.286 34.6164 99.5714 34.327 98.5714 34.327H97.4286V40.2579H98.5714C99.5714 40.2579 100.143 39.9686 100.571 39.5346C101.143 38.956 101.286 38.2327 101.286 37.3648ZM101.571 46.7673C101.571 45.7547 101.429 44.8868 101 44.3082C100.571 43.7296 99.8571 43.5849 98.8571 43.5849H97.5714V50.673H99C99.5714 50.673 100 50.5283 100.429 50.3836C100.714 50.239 101 49.805 101.286 49.5157C101.429 49.2264 101.571 48.7925 101.714 48.3585C101.571 47.7799 101.571 47.2013 101.571 46.7673Z" fill="white"/>
<path d="M123.935 54L123.032 49.1962H118.667C118.516 49.9241 118.366 50.7975 118.215 51.5253C118.065 52.3987 117.914 53.1266 117.763 54H114C114.753 50.0696 115.656 46.2848 116.409 42.5C117.161 38.7152 118.065 34.7848 118.817 31H123.032L128 54H123.935ZM120.624 36.2405C120.323 37.8418 120.172 39.443 119.871 41.0443C119.57 42.6456 119.269 44.2468 118.968 45.8481H122.28L120.624 36.2405Z" fill="white"/>
<path d="M147.523 31V50.3883H149V58H145.898V53.6915H136V31H139.693V50.3883H143.83V31H147.523Z" fill="white"/>
<path d="M166.386 39.5886L161.614 54H158V31H161.614V45.557H161.759L166.53 31H170V54H166.53V39.5886H166.386Z" fill="white"/>
<path d="M179 54L180.286 46.7673C180.429 46.044 180.714 45.3208 181 44.5975C181.286 44.0189 181.857 43.4403 182.429 43.1509C181.429 42.717 180.714 41.9937 180.286 41.1258C179.857 40.2579 179.714 39.1006 179.714 37.9434C179.714 35.6289 180.286 34.0377 181.286 32.7358C182.429 31.5786 183.857 31 185.714 31H191V53.8553H187.429V44.0189H186.429C185.857 44.0189 185.286 44.3082 184.714 44.7421C184.143 45.1761 183.857 46.044 183.571 47.3459L182.429 53.8553L179 54ZM186 34.4717C185 34.4717 184.143 34.761 183.714 35.4843C183.286 36.0629 183.143 36.9308 183.143 38.0881C183.143 39.2453 183.429 39.9686 184 40.4025C184.571 40.8365 185.286 40.9811 186.143 40.9811H187.571V34.4717C187.429 34.4717 186 34.4717 186 34.4717Z" fill="white"/>
<path d="M208.899 48.9051L207.284 44.6835L205.817 40.6076H205.67V54H202V31H205.523L208.018 37.5506L209.927 42.5H210.073L211.982 37.4051L214.477 31H218V54H214.33V40.7532L212.716 44.8291L211.101 48.9051H208.899Z" fill="white"/>
<path d="M215.65 65.5869C216.385 65.1541 217.119 64.5771 217.853 64.1443H218C213.888 66.0197 209.776 67.6066 205.811 69.1936C180.552 78.8594 156.909 82.8988 136.203 83.0431C107.126 83.1874 84.2168 75.5413 72.028 64H50C83.042 94.7286 160.14 101.798 215.65 65.5869Z" fill="white"/>
<path d="M27.8095 64.1453H7C34.8437 93.3564 74.7041 104.401 108.117 105.855C111.634 106 115.004 106 118.228 106C139.917 105.709 164.097 101.059 185.053 89.8685C197.07 83.474 208.061 75.045 217 64C166.295 113.412 64.739 104.837 27.8095 64.1453Z" fill="#E22A2A"/>
<path d="M218 64C217.117 64.5846 216.381 65.1691 215.645 65.6076C160.161 102.289 82.8954 95.1283 49.7816 64H28C65.0875 104.92 167.078 113.542 218 64Z" fill="#339FD9"/>
<path d="M219 63.5791C219 63.4343 218.853 63.2896 218.706 63.2896C218.706 63.2896 218.559 63.1448 218.412 63.1448H218.265H218.118H217.97C213.852 64.8822 209.881 66.6195 205.763 68.2121C182.378 77.0438 158.404 81.8215 136.342 81.9663H135.166C108.103 81.9663 85.4534 75.1616 72.9518 63.2896L72.8047 63.1448L72.6576 63H72.5105H7.79631C7.79631 63 7.64923 63 7.50216 63.1448L7.208 63.2896C7.06092 63.4343 6.91384 63.5791 7.06092 63.7239V64.0135C7.06092 64.0135 7.06092 64.1583 7.208 64.303C20.1508 77.7677 36.6235 88.1919 56.0378 95.431C72.2164 101.512 90.6011 104.987 108.986 105.855C111.486 106 114.134 106 116.781 106C117.663 106 118.399 106 119.281 106C130.753 105.855 142.225 104.552 153.256 101.946C165.317 99.1953 176.495 95.1414 186.643 89.9293C199.586 83.1246 210.322 74.5825 218.853 64.1582V64.0135V63.8687V63.7239C219 63.8687 219 63.7239 219 63.5791ZM216.647 65.0269C208.41 74.5825 198.115 82.6902 186.055 88.9158C167.082 98.7609 143.402 104.407 119.281 104.842C115.898 104.842 112.516 104.842 109.133 104.697C85.4534 103.684 41.0359 97.0236 8.82585 64.303H72.2164C85.0121 76.3199 107.956 83.1246 135.166 83.1246C135.607 83.1246 135.901 83.1246 136.342 83.1246C158.551 82.9798 182.672 78.202 206.057 69.2256C209.734 68.0673 213.264 66.6195 216.647 65.0269Z" fill="#E1F1F9"/>
</svg>
